<svg width="24" height="24" viewBox="0 0 24 24" fill="none" xmlns="http://www.w3.org/2000/svg">
<g clip-path="url(#clip0_1049_21885)">
<path fill-rule="evenodd" clip-rule="evenodd" d="M7.02741 5.76556C3.92522 8.86775 3.92522 13.8974 7.02741 16.9996C10.1296 20.1018 15.1592 20.1018 18.2614 16.9996C21.3636 13.8974 21.3636 8.86775 18.2614 5.76556C15.1592 2.66337 10.1296 2.66337 7.02741 5.76556ZM5.27067 17.2839C2.29556 13.5759 2.52758 8.14406 5.96675 4.7049C9.65472 1.01692 15.6341 1.01692 19.3221 4.7049C23.0101 8.39287 23.0101 14.3723 19.3221 18.0602C15.7801 21.6023 10.1244 21.7424 6.41511 18.4808L1.98477 22.9111C1.7895 23.1064 1.47292 23.1064 1.27766 22.9111L0.814114 22.4476C0.618852 22.2523 0.618852 21.9357 0.814114 21.7405L5.27067 17.2839Z" fill="#8B959E"/>
</g>
<defs>
<clipPath id="clip0_1049_21885">
<rect width="24" height="24" fill="white" transform="matrix(-1 0 0 1 24 0)"/>
</clipPath>
</defs>
</svg>
